<?xml version="1.0" encoding="UTF-8" standalone="no"?>
<!-- Created with Inkscape (http://www.inkscape.org/) -->

<svg
   width="210mm"
   height="188.55901mm"
   viewBox="0 0 210 188.55901"
   version="1.1"
   id="svg5"
   inkscape:version="1.1 (c68e22c387, 2021-05-23)"
   sodipodi:docname="check.svg"
   xmlns:inkscape="http://www.inkscape.org/namespaces/inkscape"
   xmlns:sodipodi="http://sodipodi.sourceforge.net/DTD/sodipodi-0.dtd"
   xmlns="http://www.w3.org/2000/svg"
   xmlns:svg="http://www.w3.org/2000/svg">
  <sodipodi:namedview
     id="namedview7"
     pagecolor="#ffffff"
     bordercolor="#666666"
     borderopacity="1.0"
     inkscape:pageshadow="2"
     inkscape:pageopacity="0.0"
     inkscape:pagecheckerboard="0"
     inkscape:document-units="mm"
     showgrid="false"
     inkscape:zoom="4"
     inkscape:cx="549.125"
     inkscape:cy="253.625"
     inkscape:window-width="1920"
     inkscape:window-height="991"
     inkscape:window-x="-9"
     inkscape:window-y="-9"
     inkscape:window-maximized="1"
     inkscape:current-layer="layer1" />
  <defs
     id="defs2">
    <clipPath
       id="clipPath18"
       clipPathUnits="userSpaceOnUse">
      <path
         id="path16"
         d="M 0,1080 H 1920 V 0 H 0 Z" />
    </clipPath>
  </defs>
  <g
     inkscape:label="Laag 1"
     inkscape:groupmode="layer"
     id="layer1">
    <g
       transform="matrix(0.74590952,0,0,-0.74590952,62.125305,173.37889)"
       id="g30" />
    <path
       id="path428"
       style="fill:#000000;fill-opacity:1;fill-rule:nonzero;stroke:none;stroke-width:0.79372"
       d="m 75.44559,188.55784 c -2.192248,-0.0396 -4.716292,-1.01833 -7.088716,-2.41372 -0.548458,-0.32303 -1.146917,-0.59765 -1.760467,-0.80641 -3.305055,-1.12549 -6.214825,-2.85103 -8.980147,-4.77897 -5.362358,-3.73922 -10.141358,-8.05467 -14.898911,-12.37887 -6.582305,-5.97986 -13.004302,-12.09707 -19.217531,-18.39205 -3.195532,-3.2384 -6.61963,-6.29501 -9.834984,-9.51829 -3.565394,-3.57413 -6.8394927,-7.35622 -9.3325556,-11.63039 -1.7501628,-3.00027 -3.1415546,-6.11085 -3.57650798,-9.51113 -0.033304,-0.26589 -0.082577,-0.54213 -0.19911749,-0.785 -0.81991369,-1.71206 -0.56513349,-3.4749 -0.2968541,-5.22824 0.1428693,-0.93261 0.80006977,-1.52633 1.78825427,-1.86999 1.223121,-0.42545 2.3795773,-0.37623 3.6233303,0.0179 1.8382689,0.58182 3.5074589,1.38506 5.1044256,2.38432 7.507783,4.69567 15.050511,9.34448 22.571006,14.02267 7.449849,4.63374 14.887013,9.28413 22.333687,13.92263 2.023981,1.26042 4.061457,2.50577 6.0918,3.75827 1.383449,0.85324 2.719272,0.4024 3.158201,-1.03264 0.09047,-0.29605 0.372253,-0.54607 0.566712,-0.81674 0.776263,-1.07944 1.530302,-2.17241 2.332757,-3.23598 1.582676,-2.09623 3.152646,-4.20276 4.80597,-6.25452 1.114381,-1.38266 2.29622,-2.73119 3.561413,-4.00432 C 95.884782,110.1991 115.58809,90.404524 135.29298,70.610736 153.59854,52.222633 171.90964,33.840067 190.2176,15.45435 c 4.45594,-4.474988 8.88966,-8.9666501 13.38131,-13.4122771 0.68897,-0.682602 1.58665,-1.22868003 2.47482,-1.70728103 0.98819,-0.532599 2.03827,-0.415132 2.93995,0.248436 0.90244,0.66433103 1.18581,1.56202603 0.84928,2.54544003 -0.19125,0.559575 -0.53896,1.088193 -0.88819,1.590623 -5.56713,8.0134071 -11.15097,16.0180611 -16.72207,24.0298711 -7.77211,11.17715 -15.5355,22.359878 -23.30603,33.537837 -9.04125,13.005895 -18.08647,26.009395 -27.13012,39.013721 -6.51246,9.36586 -13.02573,18.73255 -19.5382,28.09846 -9.04285,13.00511 -18.08411,26.01097 -27.129338,39.0145 -2.405763,3.45903 -4.839309,6.90299 -7.222855,10.37394 -0.548458,0.79845 -0.945317,1.68028 -1.412834,2.52401 -0.861961,1.55568 -1.861258,3.03201 -3.16614,4.32657 -1.990637,1.97239 -4.428153,2.95977 -7.901473,2.92008" />
  </g>
</svg>
