<?xml version="1.0" encoding="UTF-8" standalone="no"?>
<!-- Created with Inkscape (http://www.inkscape.org/) -->

<svg
   width="210mm"
   height="137.082mm"
   viewBox="0 0 210 137.082"
   version="1.1"
   id="svg5"
   sodipodi:docname="back-transparent.svg"
   inkscape:version="1.1 (c68e22c387, 2021-05-23)"
   xmlns:inkscape="http://www.inkscape.org/namespaces/inkscape"
   xmlns:sodipodi="http://sodipodi.sourceforge.net/DTD/sodipodi-0.dtd"
   xmlns="http://www.w3.org/2000/svg"
   xmlns:svg="http://www.w3.org/2000/svg">
  <sodipodi:namedview
     id="namedview7"
     pagecolor="#ffffff"
     bordercolor="#666666"
     borderopacity="1.0"
     inkscape:pageshadow="2"
     inkscape:pageopacity="0.0"
     inkscape:pagecheckerboard="0"
     inkscape:document-units="mm"
     showgrid="false"
     inkscape:zoom="0.5"
     inkscape:cx="-83"
     inkscape:cy="7"
     inkscape:window-width="1920"
     inkscape:window-height="991"
     inkscape:window-x="-9"
     inkscape:window-y="-9"
     inkscape:window-maximized="1"
     inkscape:current-layer="layer1"
     showguides="false" />
  <defs
     id="defs2">
    <clipPath
       id="clipPath18"
       clipPathUnits="userSpaceOnUse">
      <path
         id="path16"
         d="M 0,1080 H 1920 V 0 H 0 Z" />
    </clipPath>
  </defs>
  <g
     inkscape:label="Laag 1"
     inkscape:groupmode="layer"
     id="layer1">
    <g
       transform="matrix(0.74590952,0,0,-0.74590952,62.125305,173.37889)"
       id="g30" />
    <path
       id="path608"
       style="fill:none;fill-opacity:1;fill-rule:nonzero;stroke:#000000;stroke-width:5.08924;stroke-miterlimit:4;stroke-dasharray:none;stroke-opacity:1"
       d="m 159.15094,2.5489146 c -0.79435,0.00912 -0.47499,0.8164191 -0.53386,1.3531003 -0.0195,7.2655121 0.028,14.5326341 -0.033,21.7971461 0.0142,0.908047 -0.56477,2.099684 -1.61337,2.326876 -1.27654,0.240149 -2.57978,-0.151184 -3.87147,-0.08019 -28.5208,-0.194633 -57.040973,-0.480063 -85.561879,-0.656252 -7.477915,-0.0011 -14.956852,-0.04143 -22.434164,0.03834 -4.05117,0.177133 -8.118907,0.153704 -12.154131,0.574567 -4.051833,0.454068 -7.969168,1.826172 -11.473886,3.900419 -3.037125,1.67318 -5.826138,3.799819 -8.150222,6.380639 -1.926957,1.947737 -3.6054815,4.142639 -4.8528289,6.587932 -2.2940861,3.881125 -4.050566,8.100994 -4.9024844,12.540372 -0.904665,4.361647 -0.8977434,8.887408 -0.5552097,13.284229 0.2318034,3.264131 -0.1780965,6.524532 -0.1100821,9.790742 -0.152541,18.14886 -0.2941411,36.298925 -0.3589297,54.447725 -0.069584,0.76624 0.72606,1.121 1.3822089,1.01514 10.5547049,-0.0518 21.1120149,-0.10264 31.6641019,-0.27955 0.914236,-0.0545 1.044316,-1.08312 0.971394,-1.80347 0.07648,-15.22964 0.23274,-30.4598 0.278816,-45.688997 -0.143259,-1.512604 -0.695315,-3.001146 -0.37326,-4.532374 0.215521,-2.409754 0.87295,-4.724442 2.359879,-6.683853 0.830226,-1.104915 1.385677,-2.402106 2.258022,-3.469735 1.113611,-0.860819 2.484056,-1.336517 3.767764,-1.892032 1.535406,-0.577642 3.10265,-1.136733 4.714893,-1.435517 3.150951,0.237298 6.314679,0.02833 9.471481,0.05902 29.986539,-0.244755 59.973197,-0.479374 89.959757,-0.718326 2.55308,-0.0088 5.10685,-0.176555 7.65781,-0.161876 1.23676,0.114828 1.96915,1.358768 1.92929,2.518132 0.0527,7.927319 0.0139,15.856706 0.0295,23.784818 1.97326,-1.525581 3.55198,-3.477053 5.38021,-5.163727 12.39386,-12.172782 24.74477,-24.389566 37.16666,-36.533647 1.78156,-1.703661 3.53489,-3.436332 5.27368,-5.183573 -3.27,-3.389832 -6.69312,-6.630472 -10.02788,-9.957037 C 184.27733,26.787119 172.19118,14.818386 160.00254,2.95531 159.73675,2.734109 159.53995,2.3821551 159.15096,2.5489205 Z" />
  </g>
</svg>
