<?xml version="1.0" encoding="UTF-8" standalone="no"?>
<!-- Created with Inkscape (http://www.inkscape.org/) -->

<svg
   width="210mm"
   height="190.283mm"
   viewBox="0 0 210 190.283"
   version="1.1"
   id="svg5"
   sodipodi:docname="heart.svg"
   inkscape:version="1.1 (c68e22c387, 2021-05-23)"
   xmlns:inkscape="http://www.inkscape.org/namespaces/inkscape"
   xmlns:sodipodi="http://sodipodi.sourceforge.net/DTD/sodipodi-0.dtd"
   xmlns="http://www.w3.org/2000/svg"
   xmlns:svg="http://www.w3.org/2000/svg">
  <sodipodi:namedview
     id="namedview7"
     pagecolor="#ffffff"
     bordercolor="#666666"
     borderopacity="1.0"
     inkscape:pageshadow="2"
     inkscape:pageopacity="0.0"
     inkscape:pagecheckerboard="0"
     inkscape:document-units="mm"
     showgrid="false"
     inkscape:zoom="1"
     inkscape:cx="346.5"
     inkscape:cy="367.5"
     inkscape:window-width="1920"
     inkscape:window-height="991"
     inkscape:window-x="-9"
     inkscape:window-y="-9"
     inkscape:window-maximized="1"
     inkscape:current-layer="layer1"
     showguides="false" />
  <defs
     id="defs2">
    <clipPath
       id="clipPath18"
       clipPathUnits="userSpaceOnUse">
      <path
         id="path16"
         d="M 0,1080 H 1920 V 0 H 0 Z" />
    </clipPath>
  </defs>
  <g
     inkscape:label="Laag 1"
     inkscape:groupmode="layer"
     id="layer1">
    <g
       transform="matrix(0.74590952,0,0,-0.74590952,62.125305,173.37889)"
       id="g30" />
    <path
       id="path344"
       style="fill:#000000;fill-opacity:1;fill-rule:nonzero;stroke:none;stroke-width:1.0364"
       d="m 104.93242,182.30327 c 1.60435,-1.70385 3.20042,-3.30717 4.6887,-5.00584 1.38566,-1.58051 2.59202,-3.31856 3.99117,-4.8856 2.19201,-2.45006 4.48349,-4.81203 6.72524,-7.21752 1.09341,-1.17321 2.12462,-2.4086 3.2657,-3.5331 2.07902,-2.04794 4.21712,-4.03576 6.33554,-6.04431 4.96439,-4.70838 9.86347,-9.48828 14.9211,-14.09406 3.3621,-3.06154 6.96153,-5.86087 10.43453,-8.80115 1.98783,-1.68312 3.91449,-3.43878 5.90855,-5.11569 4.4389,-3.73105 8.35134,-8.00622 12.51872,-12.01814 0.1701,-0.16375 0.32337,-0.34719 0.47052,-0.53271 2.74441,-3.4647 5.52299,-6.90141 8.21764,-10.40342 2.37442,-3.08434 4.74261,-6.181122 6.94807,-9.386712 1.54733,-2.249 2.78169,-4.71253 4.22438,-7.03822 1.54736,-2.4967 2.81177,-5.11258 3.76319,-7.89222 0.75761,-2.2148 1.63855,-4.38814 2.38788,-6.606041 1.04364,-3.090556 2.23032,-6.155203 2.97239,-9.320381 1.81476,-7.73054 1.34526,-15.549171 0.24237,-23.318055 -0.66848,-4.714605 -2.43762,-9.146267 -4.26686,-13.520928 -0.81878,-1.958804 -1.70283,-3.921753 -2.82835,-5.71266 -1.24161,-1.976425 -2.69361,-3.84506 -4.24097,-5.595548 -1.25925,-1.426091 -2.70916,-2.719521 -4.22335,-3.878223 -3.3652,-2.5785731 -7.25379,-4.1673791 -11.27401,-5.3747901 -1.76705,-0.530641 -3.67612,-0.953493 -5.49605,-0.871618 -4.27932,0.190695 -8.55032,0.647755 -12.81098,1.118282 -8.14821,0.898562 -15.77927,3.5082261 -22.84236,7.5947681 -6.3148,3.653325 -11.96529,8.221793 -16.92342,13.60384 -1.17634,1.277886 -2.29772,2.606556 -3.46369,3.894807 -2.26868,2.509134 -4.29691,5.172693 -5.58309,8.34409 -0.78041,1.925638 -1.60956,3.832622 -2.43556,5.740642 -0.28908,0.667444 -0.63219,1.311051 -1.00841,2.082134 -0.64154,-0.979402 -1.24679,-1.807487 -1.75048,-2.692576 -1.28828,-2.259362 -2.57238,-4.522867 -3.78185,-6.825759 -1.432322,-2.725741 -3.284362,-5.117762 -5.331272,-7.410289 -2.71953,-3.045992 -5.42454,-6.086799 -8.598,-8.685064 -4.26065,-3.489574 -8.56485,-6.884833 -13.54061,-9.359765 -4.76435,-2.36922 -9.67589,-4.3425341 -14.89314,-5.3291921 -4.41301,-0.835342 -8.89856,-1.315197 -13.36754,-1.819924 -2.13499,-0.24149 -4.30626,-0.274658 -6.45784,-0.224891 -2.73093,0.06425 -5.21934,1.194974 -7.72431,2.139137 -3.80051,1.432311 -7.43723,3.2978381 -10.23347,6.2515911 -3.19316,3.372456 -6.16866,6.978106 -7.97822,11.375569 -2.1163296,5.142639 -4.2295796,10.294603 -5.0431596,15.831074 -0.74826,5.08667 -0.98147,10.227235 -0.6923,15.362618 0.21975,3.894807 0.88197,7.725355 2.2666,11.419099 1.40435,3.743491 2.6967296,7.530513 3.9808296,11.317533 1.03641,3.05843 2.39513,5.94896 4.11556,8.68196 0.95351,1.51418 1.76811,3.11543 2.7413,4.61614 1.50279,2.31429 3.04598,4.60578 4.65033,6.850632 1.28413,1.79816 2.72162,3.48646 4.02437,5.27115 4.05857,5.55928 8.33268,10.9237 13.57276,15.44346 0.49643,0.42907 0.92756,0.93276 1.4012,1.38982 1.68312,1.62404 3.32789,3.29058 5.06906,4.85037 2.29149,2.05415 4.64517,4.04094 7.00196,6.02151 3.00141,2.5226 6.12201,4.90944 9.02915,7.53362 4.00154,3.61498 7.88598,7.36365 11.75902,11.11751 4.54983,4.40886 9.20431,8.70993 13.59038,13.29188 3.51237,3.67094 6.92837,7.4134 10.11736,11.37246 1.691432,2.10079 3.626382,4.00363 5.453572,5.99871 m -0.0117,-147.061599 c 0.97007,-1.455111 1.77951,-2.885351 2.79415,-4.151835 4.76849,-5.958289 10.01685,-11.434646 16.1337,-16.053901 4.08964,-3.089519 8.34202,-5.8815931 13.01412,-8.0176221 6.63299,-3.032516 13.53336,-5.10118 20.80166,-5.872266 3.16725,-0.33682899 6.33036,-0.70993499 9.50073,-1.01360099 4.36428,-0.418707 8.57209,0.157527 12.71459,1.69659299 3.92592,1.459256 7.65386,3.219071 11.10197,5.59969 2.29977,1.589844 4.27309,3.4947561 5.95932,5.7136961 1.06646,1.404328 2.11013,2.828348 3.2087,4.207801 1.51108,1.896619 2.53712,4.049232 3.473,6.26299 2.27697,5.391374 4.51355,10.826279 5.34475,16.646724 1.22088,8.556551 1.65823,17.163886 -0.37622,25.670691 -0.78146,3.26571 -1.9754,6.437107 -3.06052,9.625087 -0.96696,2.83974 -1.993,5.66084 -3.08744,8.45291 -0.67159,1.7111 -1.40123,3.42013 -2.31534,5.00894 -2.20337,3.83262 -4.53011,7.59477 -6.80708,11.384902 -0.0685,0.11296 -0.13368,0.22801 -0.21564,0.33165 -5.21311,6.61018 -9.92461,13.61939 -15.68597,19.79428 -1.18357,1.26856 -2.49358,2.41793 -3.73623,3.63053 -1.03435,1.01153 -2.02928,2.06347 -3.08952,3.04702 -2.10079,1.95052 -4.18501,3.92175 -6.36456,5.78107 -3.74351,3.19316 -7.55747,6.3034 -11.33621,9.45511 -0.82809,0.69024 -1.66135,1.38153 -2.44487,2.12048 -4.21195,3.97254 -8.42492,7.94611 -12.60682,11.94974 -2.56614,2.45628 -4.9737,5.08874 -7.64038,7.42894 -4.0088,3.51963 -7.42062,7.60099 -11.10091,11.42636 -1.85307,1.92668 -3.40563,4.14147 -5.12398,6.20081 -0.63948,0.76693 -1.38671,1.44267 -2.04171,2.19717 -0.9649,1.10792 -1.88626,2.25418 -2.8356,3.37557 -0.71201,0.84156 -1.39709,1.71214 -2.17127,2.49463 -0.90376,0.91307 -1.63132,0.82497 -2.54126,-0.0466 -1.89975,-1.81992 -3.90309,-3.53517 -5.739622,-5.41521 -2.11219,-2.15987 -4.11036,-4.43477 -6.11996,-6.69206 -1.24162,-1.39396 -2.37233,-2.88639 -3.62535,-4.26999 -1.87278,-2.06555 -3.77562,-4.10519 -5.72923,-6.09301 -1.1048,-1.12347 -2.37233,-2.08421 -3.50513,-3.18177 -3.89375,-3.77251 -7.65695,-7.68701 -11.66369,-11.33307 -4.96124,-4.51458 -9.62506,-9.35666 -14.94702,-13.48362 -3.55278,-2.75476 -6.9211,-5.7479 -10.36819,-8.63843 -0.50472,-0.42285 -1.01775,-0.84156 -1.47791,-1.31001 -5.28875,-5.38412 -10.90399,-10.46872 -15.43828,-16.55241 -3.49059,-4.68351 -7.04443,-9.3266 -10.35262,-14.135522 -2.14433,-3.11543 -3.93732,-6.47649 -5.8069896,-9.77329 -0.7752,-1.36805 -1.44474,-2.81694 -1.97951,-4.29589 -1.91633,-5.29499 -3.78599,-10.607601 -5.61007,-15.935753 -1.36908998,-3.99534 -1.81578998,-8.158574 -1.97122998,-12.353937 -0.1607,-4.347716 0.0734,-8.68403 0.49849,-13.012053 0.43013,-4.379845 1.54838998,-8.596973 3.08123998,-12.702171 1.0758,-2.883274 2.25937,-5.727169 3.45331,-8.564842 1.54113,-3.662653 7.5999496,-11.289549 10.8003696,-13.6494411 3.60356,-2.658376 7.53673,-4.647237 11.74451,-6.222571 4.39539,-1.64477199 8.84157,-2.28941599 13.47845,-1.81681799 5.54993,0.565878 11.13823,0.93380099 16.5752,2.24588899 8.81049,2.127739 17.04161,5.593474 24.30162,11.1320171 2.02925,1.548387 4.01191,3.156886 6.01943,4.734294 4.36016,3.42428 7.84764,7.699446 11.448112,11.853352 1.16285,1.342143 2.03654,2.936135 3.03875,4.418192 0.14307,0.211436 0.26852,0.436325 0.4301,0.70061" />
  </g>
</svg>
