<?xml version="1.0" encoding="UTF-8" standalone="no"?>
<!-- Created with Inkscape (http://www.inkscape.org/) -->

<svg
   width="210mm"
   height="207.30701mm"
   viewBox="0 0 210 207.307"
   version="1.1"
   id="svg5"
   sodipodi:docname="information.svg"
   inkscape:version="1.1 (c68e22c387, 2021-05-23)"
   xmlns:inkscape="http://www.inkscape.org/namespaces/inkscape"
   xmlns:sodipodi="http://sodipodi.sourceforge.net/DTD/sodipodi-0.dtd"
   xmlns="http://www.w3.org/2000/svg"
   xmlns:svg="http://www.w3.org/2000/svg">
  <sodipodi:namedview
     id="namedview7"
     pagecolor="#ffffff"
     bordercolor="#666666"
     borderopacity="1.0"
     inkscape:pageshadow="2"
     inkscape:pageopacity="0.0"
     inkscape:pagecheckerboard="0"
     inkscape:document-units="mm"
     showgrid="false"
     inkscape:zoom="1"
     inkscape:cx="346.5"
     inkscape:cy="-52.5"
     inkscape:window-width="1920"
     inkscape:window-height="991"
     inkscape:window-x="-9"
     inkscape:window-y="-9"
     inkscape:window-maximized="1"
     inkscape:current-layer="layer1"
     showguides="false" />
  <defs
     id="defs2">
    <clipPath
       id="clipPath18"
       clipPathUnits="userSpaceOnUse">
      <path
         id="path16"
         d="M 0,1080 H 1920 V 0 H 0 Z" />
    </clipPath>
  </defs>
  <g
     inkscape:label="Laag 1"
     inkscape:groupmode="layer"
     id="layer1">
    <g
       transform="matrix(0.74590952,0,0,-0.74590952,62.125305,173.37889)"
       id="g30" />
    <path
       id="path300"
       style="fill:#000000;fill-opacity:1;fill-rule:nonzero;stroke:#000000;stroke-width:5.27395;stroke-miterlimit:4;stroke-dasharray:none;stroke-opacity:1"
       d="m 104.80054,25.94016 c -0.28002,0 -0.56188,-0.01582 -0.84096,0.0029 -0.79539,0.05487 -1.59447,0.09116 -2.38519,0.191629 -6.455136,0.823283 -11.905556,3.565713 -16.090836,8.603103 -1.7331,2.08473 -2.98057,4.49319 -3.70152,7.09701 -0.44747,1.62146 -0.57027,3.34152 -0.74144,5.02716 -0.0699,0.68747 0.1387,1.39912 0.18802,2.10147 0.18142,2.56661 1.02238,4.91274 2.23172,7.16864 1.04003,1.94147 2.38428,3.61502 3.93783,5.15926 2.1154,2.10334 4.60015,3.63734 7.32676,4.76855 4.54343,1.88472 9.270096,2.41218 14.132606,1.64843 3.13407,-0.49118 6.09139,-1.49308 8.82267,-3.12476 1.70517,-1.01865 3.23359,-2.21404 4.6262,-3.67177 1.24004,-1.29679 2.4429,-2.59451 3.37409,-4.11178 1.11352,-1.81402 1.89309,-3.80293 2.29961,-5.87928 0.74236,-3.78619 0.49957,-7.51005 -1.03446,-11.11855 -0.81675,-1.92193 -1.85216,-3.68014 -3.16941,-5.29787 -1.62704,-1.99542 -3.55082,-3.642 -5.74998,-4.94995 -4.06807,-2.41963 -8.49521,-3.589904 -13.2256,-3.61409 m 26.52656,106.899748 h 0.12921 c 0,-10.6748 -0.003,-21.34963 0.002,-32.02443 0.002,-5.046698 0.0184,-10.092468 0.0264,-15.139168 0.003,-2.58798 0.0132,-5.17599 -0.0105,-7.764 -0.005,-0.74793 -0.0957,-1.46331 -0.71816,-2.05589 -0.87911,-0.83817 -1.92844,-0.96841 -3.04476,-0.9712 -6.47188,-0.0158 -12.94465,-0.0324 -19.41653,-0.0446 -6.43001,-0.0132 -12.859086,-0.0264 -19.289086,-0.0237 -1.6382,9.2e-4 -3.28475,-0.0427 -4.91087,0.1097 -1.59263,0.14978 -2.81685,1.20842 -2.71638,3.06709 0.0105,0.1722 0,0.34513 0,0.51725 -0.0185,8.79845 -0.0382,17.59784 -0.0577,26.396318 -0.0237,11.23576 -0.053,22.47058 -0.0707,33.70634 -0.0237,15.915 -0.039,31.83095 -0.0622,47.74595 -9.2e-4,0.29769 -0.10601,0.59817 -0.0857,0.89214 0.0641,0.9135 0.10416,1.82423 0.91819,2.4931 0.86142,0.70793 1.85773,0.85307 2.90429,0.86422 1.85496,0.0185 3.71083,0.0298 5.56579,0.0316 12.082276,0.0105 24.164596,0.0185 36.246906,0.0264 0.49583,0 0.99353,0.005 1.48841,-0.0287 1.67264,-0.11629 3.06153,-1.18888 3.04943,-3.19454 -0.0372,-6.12396 0.0438,-12.24884 0.0493,-18.37277 0.0132,-12.07672 0.003,-24.15347 0.003,-36.23019 m 76.03907,-29.89598 c -0.21016,4.01598 -0.33025,7.31376 -0.57304,10.6032 -0.14134,1.90611 -0.45398,3.80199 -0.73769,5.69508 -0.21755,1.44472 -0.46793,2.88662 -0.78049,4.31365 -0.46981,2.13682 -0.97028,4.269 -1.52658,6.38536 -0.41398,1.57308 -0.89399,3.13127 -1.42146,4.669 -0.73582,2.14613 -1.49865,4.2848 -2.33217,6.39372 -0.69864,1.76936 -1.46795,3.51456 -2.29219,5.22905 -0.98143,2.04007 -1.99635,4.06898 -3.10428,6.04208 -1.18983,2.12007 -2.45592,4.20107 -3.77968,6.24022 -1.20842,1.85959 -2.47544,3.6885 -3.83271,5.44206 -1.57679,2.03822 -3.24942,4.00572 -4.93785,5.95464 -1.36936,1.58144 -2.75451,3.16104 -4.25597,4.61505 -2.08472,2.01868 -4.23457,3.9769 -6.44768,5.85417 -2.08751,1.76938 -4.23179,3.48384 -6.46162,5.06716 -2.38986,1.69681 -4.85415,3.30524 -7.38541,4.7825 -2.79543,1.63076 -5.66905,3.13966 -8.57239,4.57412 -3.78248,1.86799 -7.72122,3.37781 -11.72882,4.69599 -7.15188,2.35265 -14.47679,3.90805 -21.96918,4.65321 -10.33527,1.02699 -20.596106,0.52001 -30.782516,-1.5303 -5.35462,-1.07725 -10.61156,-2.5201 -15.69734,-4.49227 -3.501513,-1.35817 -6.950023,-2.88659 -10.314803,-4.55459 -3.02986,-1.50144 -5.96487,-3.21592 -8.84869,-4.98808 -2.24009,-1.37679 -4.37691,-2.93313 -6.48675,-4.50714 -2.00287,-1.49401 -3.94619,-3.07361 -5.85045,-4.69227 -1.43167,-1.21678 -2.78428,-2.52938 -4.12851,-3.84479 -1.44751,-1.41772 -2.87826,-2.85685 -4.25133,-4.34621 -1.17214,-1.27073 -2.26335,-2.61591 -3.36755,-3.94711 -0.93958,-1.13121 -1.86519,-2.27452 -2.76105,-3.44107 -0.6363,-0.82885 -1.22329,-1.69774 -1.81495,-2.56195 -0.94979,-1.3889 -1.90147,-2.77684 -2.82149,-4.1862 -0.59537,-0.91166 -1.16657,-1.84193 -1.69122,-2.79546 -1.23355,-2.24286 -2.43918,-4.50061 -3.64201,-6.76116 -0.32095,-0.60281 -0.60653,-1.22704 -0.87353,-1.85683 -0.65956,-1.55726 -1.31817,-3.11545 -1.9395998,-4.68762 -0.54978,-1.39074 -1.06887,-2.79543 -1.5647,-4.20571 -0.50327,-1.43262 -1.00561,-2.86803 -1.42982,-4.32575 -0.55722,-1.90983 -1.03818,-3.84295 -1.55355,-5.7658 -0.74608,-2.78428 -1.27073,-5.60951 -1.60471,-8.47193 -0.24471,-2.09125 -0.46977,-4.18435 -0.72838,-6.27373 -0.55074,-4.44389 -0.50514,-8.90357 -0.27538,-13.357688 0.14688,-2.83546 0.47537,-5.66441 0.78888,-8.48869 0.17114,-1.53588 0.43349,-3.06522 0.74141,-4.58064 0.47816,-2.35263 0.98702,-4.7025 1.56657,-7.03282 0.44375,-1.7861 0.96933,-3.55549 1.54704,-5.30346 0.67071,-2.02889 1.39541,-4.042 2.17403,-6.03184 0.7163098,-1.82983 1.4846898,-3.64386 2.3210098,-5.42159 0.9712,-2.06613 1.98148,-4.11923 3.08571,-6.11651 1.17678,-2.12659 2.43544,-4.21318 3.74897,-6.2579 1.23352,-1.92007 2.53126,-3.80573 3.90246,-5.62998 1.43354,-1.90891 2.92383,-3.78339 4.50715,-5.56951 1.86706,-2.10519 3.80107,-4.15922 5.81416,-6.12487 2.0931,-2.0438 4.25226,-4.03085 6.5007,-5.901616 2.068,-1.720994 4.24575,-3.321985 6.45886,-4.854134 2.41309,-1.669829 4.86343,-3.302447 7.40492,-4.762966 2.73312,-1.570291 5.5323,-3.054996 8.41053,-4.335043 3.43363,-1.527501 6.930503,-2.9470856 10.487843,-4.1536416 12.56324,-4.258763 25.49118,-5.936964 38.737236,-5.186238 9.17987,0.520948 18.12624,2.255897 26.84379,5.158328 4.92203,1.639132 9.72873,3.5815286 14.29076,6.0597606 3.10614,1.687504 6.20022,3.418729 9.16033,5.343451 2.90149,1.886583 5.68392,3.968518 8.41053,6.102553 2.25127,1.761926 4.41971,3.645716 6.48583,5.622536 2.03356,1.94611 3.92292,4.04852 5.81696,6.13511 1.41772,1.56284 2.77592,3.18244 4.09689,4.82715 0.94889,1.18237 1.80472,2.43916 2.68011,3.67921 0.93305,1.32376 1.86145,2.65126 2.74987,4.00479 0.63351,0.96376 1.22329,1.96008 1.78703,2.96662 1.20098,2.13962 2.37871,4.29226 3.55084,6.44769 0.30605,0.56281 0.57489,1.14888 0.82978,1.7368 0.66423,1.53215 1.34889,3.05779 1.95637,4.61227 0.81676,2.09124 1.60099,4.19737 2.33869,6.31745 0.54142,1.55539 1.03074,3.1322 1.46423,4.72108 0.55722,2.04661 1.06608,4.10807 1.53773,6.17607 0.32466,1.42236 0.58327,2.86241 0.81118,4.30433 0.29118,1.84565 0.59538,3.69502 0.76283,5.55461 0.33025,3.68481 0.57119,7.37797 0.79631,10.365038" />
  </g>
</svg>
